<?xml version="1.0" encoding="iso-8859-1"?>
<!-- Generator: Adobe Illustrator 19.0.0, SVG Export Plug-In . SVG Version: 6.00 Build 0)  -->
<svg version="1.1" id="Layer_1" xmlns="http://www.w3.org/2000/svg" xmlns:xlink="http://www.w3.org/1999/xlink" x="0px" y="0px"
	 viewBox="0 0 496.2 496.2" style="enable-background:new 0 0 496.2 496.2;" xml:space="preserve">
<path style="fill:#25B7D3;" d="M496.2,248.1C496.2,111.1,385.1,0,248.1,0S0,111.1,0,248.1s111.1,248.1,248.1,248.1
	S496.2,385.1,496.2,248.1z"/>
<path style="fill:#91C5CE;" d="M151.5,79c-14.6-3.3-26.1-9.8-26.1-9.8l0,0c0,0,6.5,11.5,9.8,26.1c7.1,21,3.3,39.5,21,57.2
	c15.2,15.2,38.6,16.4,53.8,1.2l0,0c15.2-15.2,14-38.6-1.2-53.8C191,82.4,172.5,86.1,151.5,79z"/>
<path style="fill:#B9E4EA;" d="M151.5,79c-14.6-3.3-26.1-9.8-26.1-9.8s69.4,99.7,84.5,84.6l0,0c15.2-15.2,14-38.6-1.2-53.8
	C191,82.4,172.5,86.1,151.5,79z"/>
<path style="fill:#F2F7F7;" d="M206.9,147.8L206.9,147.8c11.9-11.9,10.9-30.2-0.9-42.1C192.1,91.9,195,159.7,206.9,147.8z"/>
<path style="fill:#91C5CE;" d="M285.8,79c-14.6-3.3-26.1-9.8-26.1-9.8l0,0c0,0,6.5,11.5,9.8,26.1c7.1,21,3.3,39.5,21,57.2
	c15.2,15.2,38.6,16.4,53.8,1.2l0,0c15.2-15.2,14-38.6-1.2-53.8C325.4,82.4,306.8,86.1,285.8,79z"/>
<path style="fill:#B9E4EA;" d="M285.8,79c-14.6-3.3-26.1-9.8-26.1-9.8s69.4,99.7,84.5,84.6l0,0c15.2-15.2,14-38.6-1.2-53.8
	C325.4,82.4,306.8,86.1,285.8,79z"/>
<path style="fill:#F2F7F7;" d="M341.2,147.8L341.2,147.8c11.9-11.9,10.9-30.2-0.9-42.1C326.5,91.9,329.3,159.7,341.2,147.8z"/>
<path style="fill:#91C5CE;" d="M151.5,352c-14.6-3.3-26.1-9.8-26.1-9.8l0,0c0,0,6.5,11.5,9.8,26.1c7.1,21,3.3,39.5,21,57.2
	c15.2,15.2,38.6,16.4,53.8,1.2l0,0c15.2-15.2,14-38.6-1.2-53.8C191,355.4,172.5,359.1,151.5,352z"/>
<path style="fill:#B9E4EA;" d="M151.5,352c-14.6-3.3-26.1-9.8-26.1-9.8s69.4,99.7,84.5,84.6l0,0c15.2-15.2,14-38.6-1.2-53.8
	C191,355.4,172.5,359.1,151.5,352z"/>
<path style="fill:#F2F7F7;" d="M206.9,420.8L206.9,420.8c11.9-11.9,10.9-30.2-0.9-42.1C192.1,364.9,195,432.7,206.9,420.8z"/>
<path style="fill:#91C5CE;" d="M285.8,352c-14.6-3.3-26.1-9.8-26.1-9.8l0,0c0,0,6.5,11.5,9.8,26.1c7.1,21,3.3,39.5,21,57.2
	c15.2,15.2,38.6,16.4,53.8,1.2l0,0c15.2-15.2,14-38.6-1.2-53.8C325.4,355.4,306.8,359.1,285.8,352z"/>
<path style="fill:#B9E4EA;" d="M285.8,352c-14.6-3.3-26.1-9.8-26.1-9.8s69.4,99.7,84.5,84.6l0,0c15.2-15.2,14-38.6-1.2-53.8
	C325.4,355.4,306.8,359.1,285.8,352z"/>
<path style="fill:#F2F7F7;" d="M341.2,420.8L341.2,420.8c11.9-11.9,10.9-30.2-0.9-42.1C326.5,364.9,329.3,432.7,341.2,420.8z"/>
<path style="fill:#91C5CE;" d="M100.7,213.4c-14.6-3.3-26.1-9.8-26.1-9.8l0,0c0,0,6.5,11.5,9.8,26.1c7.1,21,3.3,39.5,21,57.2
	c15.2,15.2,38.6,16.4,53.8,1.2l0,0c15.2-15.2,14-38.6-1.2-53.8C140.2,216.7,121.7,220.4,100.7,213.4z"/>
<path style="fill:#B9E4EA;" d="M100.7,213.4c-14.6-3.3-26.1-9.8-26.1-9.8s69.4,99.7,84.5,84.6l0,0c15.2-15.2,14-38.6-1.2-53.8
	C140.2,216.7,121.7,220.4,100.7,213.4z"/>
<path style="fill:#F2F7F7;" d="M156.1,282.2L156.1,282.2c11.9-11.9,10.9-30.2-0.9-42.1C141.3,226.2,144.2,294,156.1,282.2z"/>
<path style="fill:#91C5CE;" d="M235,213.4c-14.6-3.3-26.1-9.8-26.1-9.8l0,0c0,0,6.5,11.5,9.8,26.1c7.1,21,3.3,39.5,21,57.2
	c15.2,15.2,38.6,16.4,53.8,1.2l0,0c15.2-15.2,14-38.6-1.2-53.8C274.5,216.7,256,220.4,235,213.4z"/>
<path style="fill:#B9E4EA;" d="M235,213.4c-14.6-3.3-26.1-9.8-26.1-9.8s69.4,99.7,84.5,84.6l0,0c15.2-15.2,14-38.6-1.2-53.8
	C274.5,216.7,256,220.4,235,213.4z"/>
<path style="fill:#F2F7F7;" d="M290.4,282.2L290.4,282.2c11.9-11.9,10.9-30.2-0.9-42.1C275.7,226.2,278.5,294,290.4,282.2z"/>
<path style="fill:#91C5CE;" d="M368.5,213.4c-14.6-3.3-26.1-9.8-26.1-9.8l0,0c0,0,6.5,11.5,9.8,26.1c7.1,21,3.3,39.5,21,57.2
	c15.2,15.2,38.6,16.4,53.8,1.2l0,0c15.2-15.2,14-38.6-1.2-53.8C408,216.7,389.5,220.4,368.5,213.4z"/>
<path style="fill:#B9E4EA;" d="M368.5,213.4c-14.6-3.3-26.1-9.8-26.1-9.8s69.4,99.7,84.5,84.6l0,0c15.2-15.2,14-38.6-1.2-53.8
	C408,216.7,389.5,220.4,368.5,213.4z"/>
<path style="fill:#F2F7F7;" d="M423.9,282.2L423.9,282.2c11.9-11.9,10.9-30.2-0.9-42.1C409.1,226.2,412,294,423.9,282.2z"/>
<g>
</g>
<g>
</g>
<g>
</g>
<g>
</g>
<g>
</g>
<g>
</g>
<g>
</g>
<g>
</g>
<g>
</g>
<g>
</g>
<g>
</g>
<g>
</g>
<g>
</g>
<g>
</g>
<g>
</g>
</svg>
