<?xml version="1.0" encoding="iso-8859-1"?>
<!-- Generator: Adobe Illustrator 19.0.0, SVG Export Plug-In . SVG Version: 6.00 Build 0)  -->
<svg version="1.1" id="Layer_1" xmlns="http://www.w3.org/2000/svg" xmlns:xlink="http://www.w3.org/1999/xlink" x="0px" y="0px"
	 viewBox="0 0 496.2 496.2" style="enable-background:new 0 0 496.2 496.2;" xml:space="preserve">
<path style="fill:#FABC3D;" d="M496.2,248.1C496.2,111.1,385.1,0,248.1,0S0,111.1,0,248.1s111.1,248.1,248.1,248.1
	S496.2,385.1,496.2,248.1z"/>
<path style="fill:#91C5CE;" d="M258.7,76.1c-7.4-11.6-10.6-23.2-10.6-23.2l0,0c0,0-3.2,11.7-10.6,23.3c-9,18.2-23.4,27.7-23.4,50.6
	c0,19.7,14.4,35.6,34,35.6l0,0c19.7,0,34-15.9,34-35.6C282.1,103.9,267.7,94.3,258.7,76.1z"/>
<path style="fill:#B9E4EA;" d="M258.7,76.1c-7.4-11.6-10.6-23.2-10.6-23.2s-19.7,109.4,0,109.4l0,0c19.7,0,34-15.9,34-35.6
	C282.1,103.9,267.7,94.3,258.7,76.1z"/>
<path style="fill:#F2F7F7;" d="M250,156.5L250,156.5c15.4,0,26.6-12.5,26.6-27.9C276.7,110.8,234.7,156.5,250,156.5z"/>
<path style="fill:#EA5454;" d="M438.8,272c0-4.5-3.6-8.1-8.1-8.1c-1.9,0-3.6,0.6-4.9,1.7l-11-1.7L345.2,214
	c-11.4-8.5-4.3-27.4-4.2-27.6c0.1-0.3,0.1-0.6-0.1-0.9c-0.2-0.3-0.4-0.5-0.8-0.5c-1.3-0.2-2.7-0.3-4.1-0.3
	c-17.9,0-32.7,16.1-35.8,19.7c-21.9-11.8-45.8-17.8-71.1-17.8c-50.4,0-89.6,24.1-90,24.3c-18.2,12-29,27.9-32.1,47.1
	c-7.5,45.9,31.5,96.5,31.9,97c0,0.1,0.1,0.1,0.2,0.2c19.2,16.2,22.4,49,22.4,49.4c0.1,0.5,0.5,1,1.1,1h21.5c0.5,0,0.9-0.3,1-0.8
	l10.5-41.3c18.6,7.4,38,11.1,57.7,11.1c29.8,0,51.6-8.7,57-11l7.3,40.6c0.1,0.5,0.5,0.9,1,0.9h18.2c0.5,0,0.9-0.3,1-0.8l13.5-44.4
	c31.8-10.4,62.5-42.8,65-45.5l9.6-4c1.3,0.9,2.9,1.5,4.7,1.5c4.5,0,8.1-3.6,8.1-8.1l-1.4-16.2L438.8,272z"/>
<path style="fill:#D82727;" d="M430.9,277.1c0,3.2,2.2,5.8,4.8,5.8c0.8,0,1.5-0.2,2.1-0.6l0.9-9.8c-0.8-0.8-1.9-1.3-3-1.3
	C433.1,271.2,430.9,273.9,430.9,277.1z"/>
<circle style="fill:#DAE5E8;" cx="346.3" cy="253.5" r="9.1"/>
<circle style="fill:#505151;" cx="344.6" cy="251.2" r="5.1"/>
<path style="fill:#EA5454;" d="M129.9,261c-1.5,0-3-0.5-4.2-1.5c-1-0.8-9.8-8.3-11.7-23.8c-0.8-6.8-6.7-14.6-14.3-19
	c-5.6-3.2-11.2-4-15.4-2.2c-13.2,5.8-13.6,15.1-13.2,18.9c0.5,4.7,3.2,8.4,5.4,8.8c5.6,1,11.5-0.9,13-3.4c1.4-2.2-1.2-6.3-2.4-7.9
	c-2.2-3-1.5-7.3,1.5-9.5c3.1-2.2,7.3-1.5,9.5,1.5c8.2,11.2,5.3,19.4,2.9,23.2c-5.4,8.6-17.7,11.3-27.1,9.5
	c-8.5-1.6-15.3-10.1-16.5-20.6c-1.2-10.8,3.7-25.2,21.2-32.9c8.1-3.6,18.2-2.6,27.6,2.8c11.5,6.5,19.7,18,21.1,29.2
	c1.2,10.1,6.5,14.7,6.8,14.9c2.8,2.4,3.3,6.7,0.9,9.6C133.8,260.1,131.8,261,129.9,261z"/>
<path style="fill:#D82727;" d="M206.2,199.8c0,0,40.4-10.1,76.6,7.9l-0.7,12.8c0,0-43.3-15.5-75.8-6L206.2,199.8z"/>
<g>
</g>
<g>
</g>
<g>
</g>
<g>
</g>
<g>
</g>
<g>
</g>
<g>
</g>
<g>
</g>
<g>
</g>
<g>
</g>
<g>
</g>
<g>
</g>
<g>
</g>
<g>
</g>
<g>
</g>
</svg>
