<?xml version="1.0" encoding="iso-8859-1"?>
<!-- Generator: Adobe Illustrator 19.0.0, SVG Export Plug-In . SVG Version: 6.00 Build 0)  -->
<svg version="1.1" id="Layer_1" xmlns="http://www.w3.org/2000/svg" xmlns:xlink="http://www.w3.org/1999/xlink" x="0px" y="0px"
	 viewBox="0 0 496.2 496.2" style="enable-background:new 0 0 496.2 496.2;" xml:space="preserve">
<path style="fill:#25B7D3;" d="M496.2,248.1C496.2,111.1,385.1,0,248.1,0S0,111.1,0,248.1s111.1,248.1,248.1,248.1
	S496.2,385.1,496.2,248.1z"/>
<g>
	<path style="fill:#DDDDDD;" d="M136,169.6c4.8,4.8,11,7.2,17.3,7.2s12.5-2.4,17.3-7.2c9.6-9.6,9.6-25.1,0-34.6l-28.2-28.2
		c-4.6-4.6-10.8-7.2-17.3-7.2H49.3c-11.3,15.1-20.9,31.5-28.5,49h94.3L136,169.6z"/>
	<path style="fill:#DDDDDD;" d="M280.7,168.4c-30-30-58.4-45.2-84.4-45.2c-18.1,0-34.6,7.3-49,21.7c-16.6,16.6-23.9,35.5-21.8,56.2
		c2.5,23.7,17.7,49.7,45.2,77.2c0.4,0.4,0.9,0.6,1.4,0.6s1-0.2,1.4-0.6l107.1-107.1c0.4-0.4,0.6-0.9,0.6-1.4S281,168.8,280.7,168.4z
		"/>
</g>
<path style="fill:#F4F4F4;" d="M264.8,167.7c-23.8-23.8-46.4-35.9-67.1-35.9c-14.4,0-27.5,5.8-38.9,17.3L264.8,167.7z"/>
<circle style="fill:#91C5CE;" cx="223.6" cy="274.5" r="15.6"/>
<circle style="fill:#B2D5D8;" cx="252.2" cy="246" r="15.6"/>
<g>
	<circle style="fill:#91C5CE;" cx="280.7" cy="217.5" r="15.6"/>
	<circle style="fill:#91C5CE;" cx="251.4" cy="311.1" r="18"/>
	<circle style="fill:#91C5CE;" cx="284.3" cy="278.2" r="18"/>
	<circle style="fill:#91C5CE;" cx="317.2" cy="245.2" r="18"/>
</g>
<circle style="fill:#B2D5D8;" cx="282" cy="350.5" r="20.5"/>
<g>
	<circle style="fill:#91C5CE;" cx="319.3" cy="313.2" r="20.4"/>
	<circle style="fill:#91C5CE;" cx="356.7" cy="275.8" r="20.4"/>
	<circle style="fill:#91C5CE;" cx="317.7" cy="393.9" r="22.5"/>
	<circle style="fill:#91C5CE;" cx="358.8" cy="352.7" r="22.5"/>
</g>
<circle style="fill:#B2D5D8;" cx="400" cy="311.5" r="22.5"/>
<g>
</g>
<g>
</g>
<g>
</g>
<g>
</g>
<g>
</g>
<g>
</g>
<g>
</g>
<g>
</g>
<g>
</g>
<g>
</g>
<g>
</g>
<g>
</g>
<g>
</g>
<g>
</g>
<g>
</g>
</svg>
